<svg width="17" height="19" viewBox="0 0 17 19" fill="none" xmlns="http://www.w3.org/2000/svg">
<path d="M2.125 0C0.952 0 0 0.967354 0 2.15927V4.16653C0.000452725 4.62834 0.122359 5.08163 0.353102 5.47949C0.583844 5.87735 0.915037 6.20532 1.3124 6.42945L6.2016 9.19159C5.17752 9.71693 4.35765 10.5778 3.87446 11.635C3.39127 12.6922 3.27298 13.8841 3.5387 15.0181C3.80443 16.1521 4.43865 17.1619 5.33889 17.8845C6.23913 18.607 7.35281 19 8.5 19C9.64719 19 10.7609 18.607 11.6611 17.8845C12.5614 17.1619 13.1956 16.1521 13.4613 15.0181C13.727 13.8841 13.6087 12.6922 13.1255 11.635C12.6424 10.5778 11.8225 9.71693 10.7984 9.19159L15.6893 6.43118C16.0866 6.20668 16.4176 5.87834 16.6481 5.48017C16.8785 5.08199 17 4.62846 17 4.16653V2.15927C17 0.967354 16.048 0 14.875 0H2.125ZM6.8 7.55227V1.72742H10.2V7.55227L8.5 8.51271L6.8 7.55227ZM11.9 13.8193C11.9 14.7356 11.5418 15.6144 10.9042 16.2623C10.2665 16.9102 9.40174 17.2742 8.5 17.2742C7.59826 17.2742 6.73346 16.9102 6.09584 16.2623C5.45821 15.6144 5.1 14.7356 5.1 13.8193C5.1 12.9031 5.45821 12.0243 6.09584 11.3764C6.73346 10.7285 7.59826 10.3645 8.5 10.3645C9.40174 10.3645 10.2665 10.7285 10.9042 11.3764C11.5418 12.0243 11.9 12.9031 11.9 13.8193Z" fill="#283442"/>
</svg>
