<svg width="13" height="13" viewBox="0 0 13 13" fill="none" xmlns="http://www.w3.org/2000/svg">
<path d="M10.5964 9.06461C9.71769 9.27559 8.8004 9.26537 7.92664 9.03486C7.05288 8.80434 6.24993 8.36072 5.58969 7.74374C4.92945 7.12675 4.43254 6.35565 4.14344 5.49949C3.85434 4.64332 3.78209 3.72883 3.93315 2.83789C3.91052 2.86045 3.88624 2.8813 3.86051 2.90025C3.68051 3.03718 3.45551 3.08796 3.00551 3.18953L2.59729 3.2821C1.01587 3.64018 0.225151 3.81889 0.0367939 4.42382C-0.15092 5.02811 0.387794 5.65875 1.46587 6.91939L1.74487 7.24532C2.05087 7.60339 2.20451 7.78275 2.27329 8.00389C2.34208 8.22568 2.31894 8.46482 2.27265 8.94246L2.23022 9.37768C2.06758 11.06 1.98594 11.9009 2.47837 12.2744C2.97079 12.6479 3.71136 12.3078 5.19122 11.6257L5.57501 11.4496C5.99544 11.2555 6.20565 11.159 6.42872 11.159C6.65179 11.159 6.86201 11.2555 7.28308 11.4496L7.66558 11.6257C9.14608 12.3072 9.88665 12.6479 10.3784 12.275C10.8715 11.9009 10.7899 11.06 10.6272 9.37768L10.5964 9.06461Z" fill="#283442"/>
<path opacity="0.5" d="M4.171 2.19086L3.96015 2.56886C3.72872 2.98414 3.613 3.19179 3.433 3.32871C3.45872 3.30943 3.48293 3.28864 3.50565 3.26636C3.35454 4.15736 3.42679 5.07193 3.71592 5.92816C4.00505 6.78439 4.50203 7.55554 5.16235 8.17254C5.82268 8.78955 6.62572 9.23314 7.49957 9.4636C8.37342 9.69406 9.29078 9.70419 10.1695 9.49307L10.1566 9.37093C10.111 8.89328 10.0879 8.65414 10.1566 8.43236C10.2254 8.21121 10.3784 8.03186 10.6851 7.67379L10.9641 7.34786C12.0421 6.08786 12.5809 5.45721 12.3925 4.85229C12.2048 4.24736 11.4141 4.068 9.83264 3.71057L9.42379 3.618C8.97443 3.51643 8.74943 3.46564 8.56879 3.32871C8.38879 3.19179 8.27307 2.98414 8.04165 2.56886L7.83143 2.19086C7.01693 0.730286 6.61 0 6.00122 0C5.39243 0 4.9855 0.730286 4.171 2.19086Z" fill="#283442"/>
</svg>
