<svg width="21" height="17" viewBox="0 0 21 17" fill="none" xmlns="http://www.w3.org/2000/svg">
<path d="M5.48941 0.174422C5.93643 0.479102 6.04306 1.08044 5.73137 1.51341L3.43472 4.72057C3.26658 4.95309 3.0041 5.10143 2.71292 5.12548C2.42174 5.14953 2.13465 5.05332 1.9296 4.85287L0.289132 3.24929C-0.0922762 2.87245 -0.0922762 2.26309 0.289132 1.88624C0.67054 1.5094 1.29802 1.51341 1.68353 1.88624L2.49556 2.68002L4.11962 0.41095C4.43131 -0.026026 5.04648 -0.130259 5.48941 0.174422ZM5.48941 6.58875C5.93643 6.89343 6.04306 7.49477 5.73137 7.92774L3.43472 11.1349C3.26658 11.3674 3.0041 11.5158 2.71292 11.5398C2.42174 11.5639 2.13465 11.4676 1.9296 11.2672L0.289132 9.66361C-0.0963773 9.28677 -0.0963773 8.67741 0.289132 8.30458C0.674641 7.93175 1.29802 7.92774 1.67943 8.30458L2.49146 9.09835L4.11552 6.82928C4.4272 6.39231 5.04238 6.28808 5.4853 6.59276L5.48941 6.58875ZM9.18865 2.56777C9.18865 1.85818 9.77512 1.2849 10.501 1.2849H19.6876C20.4135 1.2849 21 1.85818 21 2.56777C21 3.27735 20.4135 3.85063 19.6876 3.85063H10.501C9.77512 3.85063 9.18865 3.27735 9.18865 2.56777ZM9.18865 8.98209C9.18865 8.27251 9.77512 7.69923 10.501 7.69923H19.6876C20.4135 7.69923 21 8.27251 21 8.98209C21 9.69168 20.4135 10.265 19.6876 10.265H10.501C9.77512 10.265 9.18865 9.69168 9.18865 8.98209ZM6.56391 15.3964C6.56391 14.6868 7.15038 14.1136 7.87628 14.1136H19.6876C20.4135 14.1136 21 14.6868 21 15.3964C21 16.106 20.4135 16.6793 19.6876 16.6793H7.87628C7.15038 16.6793 6.56391 16.106 6.56391 15.3964ZM2.62679 13.7928C3.06187 13.7928 3.47913 13.9618 3.78678 14.2625C4.09443 14.5632 4.26726 14.9711 4.26726 15.3964C4.26726 15.8217 4.09443 16.2296 3.78678 16.5303C3.47913 16.8311 3.06187 17 2.62679 17C2.19172 17 1.77446 16.8311 1.46681 16.5303C1.15916 16.2296 0.986329 15.8217 0.986329 15.3964C0.986329 14.9711 1.15916 14.5632 1.46681 14.2625C1.77446 13.9618 2.19172 13.7928 2.62679 13.7928Z" fill="#FEF8F3"/>
</svg>
